HIERARCHY
ROOT SimulationBone
{
	OFFSET 0.000000 0.000000 0.000000
	CHANNELS 6 Xposition Yposition Zposition Zrotation Yrotation Xrotation 
	JOINT Hips
	{
		OFFSET 0.000000 0.000000 0.000000
		CHANNELS 6 Xposition Yposition Zposition Zrotation Yrotation Xrotation 
		JOINT RightUpLeg
		{
			OFFSET 0.103458 1.857838 10.548509
			CHANNELS 3 Zrotation Yrotation Xrotation
			JOINT RightLeg
			{
				OFFSET 43.500004 -0.000038 -0.000002
				CHANNELS 3 Zrotation Yrotation Xrotation
				JOINT RightFoot
				{
					OFFSET 42.372196 0.000015 0.000010
					CHANNELS 3 Zrotation Yrotation Xrotation
					JOINT RightToe
					{
						OFFSET 17.300011 0.000003 -0.000006
						CHANNELS 3 Zrotation Yrotation Xrotation
						End Site
						{
							OFFSET 0.000000 0.000000 0.000000
						}
					}
				}
			}
		}
		JOINT LeftUpLeg
		{
			OFFSET 0.103461 1.857837 -10.548498
			CHANNELS 3 Zrotation Yrotation Xrotation
			JOINT LeftLeg
			{
				OFFSET 43.500046 -0.000042 0.000031
				CHANNELS 3 Zrotation Yrotation Xrotation
				JOINT LeftFoot
				{
					OFFSET 42.372253 0.000011 -0.000004
					CHANNELS 3 Zrotation Yrotation Xrotation
					JOINT LeftToe
					{
						OFFSET 17.299978 -0.000010 0.000025
						CHANNELS 3 Zrotation Yrotation Xrotation
						End Site
						{
							OFFSET 0.000000 0.000000 0.000000
						}
					}
				}
			}
		}
		JOINT Spine
		{
			OFFSET 6.901964 -2.603743 0.000001
			CHANNELS 3 Zrotation Yrotation Xrotation
			JOINT Spine1
			{
				OFFSET 12.588102 0.000002 0.000000
				CHANNELS 3 Zrotation Yrotation Xrotation
				JOINT Spine2
				{
					OFFSET 12.343204 0.000009 -0.000003
					CHANNELS 3 Zrotation Yrotation Xrotation
					JOINT Neck
					{
						OFFSET 25.832901 -0.000015 0.000002
						CHANNELS 3 Zrotation Yrotation Xrotation
						JOINT Head
						{
							OFFSET 11.766612 0.000023 -0.000003
							CHANNELS 3 Zrotation Yrotation Xrotation
							End Site
							{
								OFFSET 0.000000 0.000000 0.000000
							}
						}
					}
					JOINT RightShoulder
					{
						OFFSET 19.745905 -1.480377 6.000110
						CHANNELS 3 Zrotation Yrotation Xrotation
						JOINT RightArm
						{
							OFFSET 11.284127 -0.000004 -0.000022
							CHANNELS 3 Zrotation Yrotation Xrotation
							JOINT RightForeArm
							{
								OFFSET 33.000050 -0.000022 0.000026
								CHANNELS 3 Zrotation Yrotation Xrotation
								JOINT RightHand
								{
									OFFSET 25.200010 0.000035 0.000011
									CHANNELS 3 Zrotation Yrotation Xrotation
									End Site
									{
										OFFSET 0.000000 0.000000 0.000000
									}
								}
							}
						}
					}
					JOINT LeftShoulder
					{
						OFFSET 19.746092 -1.480381 -6.000066
						CHANNELS 3 Zrotation Yrotation Xrotation
						JOINT LeftArm
						{
							OFFSET 11.284147 -0.000020 -0.000017
							CHANNELS 3 Zrotation Yrotation Xrotation
							JOINT LeftForeArm
							{
								OFFSET 33.000095 0.000005 0.000016
								CHANNELS 3 Zrotation Yrotation Xrotation
								JOINT LeftHand
								{
									OFFSET 25.199768 0.000156 0.000415
									CHANNELS 3 Zrotation Yrotation Xrotation
									End Site
									{
										OFFSET 0.000000 0.000000 0.000000
									}
								}
							}
						}
					}
				}
			}
		}
	}
}
MOTION
Frames: 9
Frame Time: 0.016667
325.051004 0.000000 106.521189 0.000000 -61.737686 0.000000 -1.537035 73.176773 1.181212 95.477722 2.297991 -178.987383 137.575732 -28.487504 -172.955580 -42.560752 1.525674 0.684968 72.538589 -7.027728 -20.089692 21.454558 0.003115 0.000018 -178.606250 19.495610 162.182828 -83.997133 -2.157663 -5.105415 95.235519 4.091431 4.902693 21.454555 -0.003095 0.000003 10.898505 0.008602 -1.460558 11.782093 0.166063 -2.912567 11.464448 0.148335 -2.913524 8.992770 -2.004431 -5.844318 -21.924315 10.985077 -10.857652 153.546612 -76.063010 25.549195 17.357353 38.524810 59.866320 -50.434990 -19.689000 2.107765 -2.920568 -16.048918 15.197446 -150.000706 76.284855 32.117285 5.745837 -55.062429 -37.007125 -63.550688 19.057199 -2.513722 -1.418522 11.362837 -16.117010 
327.517377 0.000000 108.782637 0.000000 -62.577681 0.000000 -1.656894 72.849931 0.981159 96.262066 0.960497 -176.968711 137.394331 -28.050582 -177.113239 -47.103453 2.475997 2.391369 72.606963 -8.377025 -20.377681 21.454558 0.003110 0.000018 178.853875 17.692585 162.483705 -92.383428 -2.546295 -6.494878 97.722466 4.854899 4.612770 21.454559 -0.003090 0.000001 11.308766 -0.269187 -2.094226 12.610504 -0.308169 -4.205147 12.293343 -0.333680 -4.203220 7.776596 -1.669041 -5.664989 -22.225332 10.726175 -10.576406 150.809205 -75.130280 28.390239 12.041957 37.302440 54.784215 -49.186833 -19.604818 2.051266 -2.072464 -15.694087 15.186089 -151.049095 76.105682 31.051980 4.714300 -56.624794 -36.878994 -60.756302 19.772510 -2.461434 -1.029150 11.720541 -13.180617 
329.800392 0.000000 111.060209 0.000000 -63.503106 0.000000 -1.763038 72.687370 0.726067 96.547805 -0.005082 -175.423492 137.530666 -27.970903 179.884220 -51.082519 3.182098 3.426155 74.281776 -8.779862 -20.264881 21.454558 0.003105 0.000017 175.255059 15.274699 163.470141 -99.938466 -3.084304 -7.308208 100.004890 5.268555 4.108461 21.454562 -0.003084 -0.000002 11.586228 -0.445110 -2.573599 13.173317 -0.593876 -5.181101 12.856624 -0.625254 -5.177440 6.650845 -1.691342 -5.522587 -22.304266 10.649460 -10.414006 147.761688 -74.026098 31.562507 7.066749 35.642289 50.070289 -47.944556 -19.687684 2.026142 -1.551733 -15.005533 15.578254 -152.090388 75.826570 29.995880 3.611743 -57.721783 -36.777207 -58.166163 20.096017 -2.378614 -0.440840 12.263825 -9.812831 
331.896731 0.000000 113.359720 0.000000 -64.504407 0.000000 -1.946263 72.603691 0.413802 95.903729 -0.173728 -174.838376 137.059207 -28.599264 178.924849 -55.069460 3.209703 3.705099 76.928236 -8.510054 -20.427874 21.454557 0.003108 0.000017 169.861955 11.844276 164.610245 -106.413413 -3.289945 -7.000205 101.185259 4.994138 3.738641 21.454557 -0.003083 -0.000001 11.580702 -0.467698 -2.766020 13.163816 -0.617196 -5.567289 12.847334 -0.650892 -5.563485 5.628838 -1.729988 -5.383151 -22.215821 10.752040 -10.312597 144.348022 -73.160473 35.096544 2.609062 34.116099 47.114973 -46.615742 -20.607860 2.056435 -1.473643 -14.811657 15.950415 -152.719353 75.455738 29.362693 2.943991 -58.043555 -37.164481 -56.453254 19.763955 -2.286343 0.360799 13.150465 -6.541921 
333.811681 0.000000 115.685739 0.000000 -65.572029 0.000000 -2.201460 72.650352 0.125618 94.977362 0.002500 -174.859617 136.849847 -29.516798 179.118829 -58.521838 2.673382 3.453990 79.698895 -7.861104 -20.787022 21.454557 0.003113 0.000018 163.696330 7.798207 166.557346 -111.294189 -3.190112 -6.261207 101.794509 4.430687 3.272555 21.454553 -0.003084 0.000000 11.455640 -0.438337 -2.815451 12.912524 -0.559257 -5.662177 12.596098 -0.593519 -5.658721 4.715870 -1.875497 -5.159675 -21.772700 10.901576 -10.113918 141.843411 -72.810216 37.670776 -1.506208 33.061554 44.310452 -46.114175 -21.733843 2.104678 -1.474981 -14.718562 16.768102 -153.047503 75.313193 29.030734 2.997956 -58.116493 -38.095164 -55.665556 19.092100 -2.218319 1.001781 13.302370 -4.087475 
335.564273 0.000000 118.041297 0.000000 -66.695908 0.000000 -2.499265 72.887043 -0.055245 94.441987 -0.019821 -175.027943 137.910273 -30.229260 179.219783 -60.811568 1.955240 2.907867 81.895328 -7.123069 -21.216790 21.454558 0.003114 0.000019 157.797322 3.709332 169.813983 -114.051378 -3.057129 -5.870661 102.442856 4.090398 2.503427 21.454555 -0.003086 -0.000001 11.400285 -0.464970 -2.888564 12.803427 -0.606968 -5.810795 12.487093 -0.642120 -5.807049 3.939629 -2.203179 -4.781439 -20.925085 10.930613 -9.681294 141.203611 -73.179504 38.295209 -5.345626 32.469850 39.964284 -47.328295 -22.325358 2.179591 -1.242795 -14.242607 18.438460 -153.351593 75.639050 28.711576 3.844676 -58.455741 -39.511973 -55.671954 18.485594 -2.181108 1.023151 11.945551 -3.076347 
337.173689 0.000000 120.426552 0.000000 -67.865563 0.000000 -2.814041 73.269524 -0.156845 94.121732 -0.160949 -175.323827 139.913911 -30.710804 178.492828 -62.107025 1.838355 2.183890 83.605428 -6.452582 -22.034472 21.454560 0.003113 0.000019 152.100703 -0.236486 173.958566 -114.420195 -2.934649 -5.972623 102.639198 4.110979 1.846442 21.454560 -0.003089 -0.000002 11.390238 -0.534118 -2.965866 12.787216 -0.736703 -5.972618 12.470983 -0.772826 -5.968088 3.435812 -2.305420 -4.323760 -20.417773 10.679681 -9.066928 141.389352 -74.038994 38.044622 -8.622204 32.131237 34.779254 -49.954913 -22.518949 2.282532 -1.206746 -13.718481 20.236158 -154.043891 76.052014 27.993981 4.932279 -58.740383 -41.363037 -56.290149 18.128485 -2.175227 0.419108 10.585498 -3.368667 
338.654065 0.000000 122.841325 0.000000 -69.070104 0.000000 -3.128060 73.735130 -0.237291 93.715029 -0.269140 -175.819384 142.288193 -30.952072 176.680188 -62.806784 2.833624 1.323210 85.011578 -5.890896 -23.458285 21.454558 0.003111 0.000018 146.496308 -3.941641 178.439674 -112.287086 -2.731309 -6.401643 101.897668 4.398625 1.710920 21.454563 -0.003095 -0.000002 11.362388 -0.614148 -2.995903 12.736024 -0.894292 -6.041312 12.419827 -0.930833 -6.035833 3.302149 -1.907300 -3.878735 -20.877024 10.131126 -8.383977 141.276048 -75.006976 38.090431 -11.064109 31.861153 29.901279 -53.429916 -22.583397 2.403290 -1.789516 -13.553729 21.407737 -155.276216 76.208683 26.731384 5.694949 -58.685217 -43.441729 -57.324917 18.062444 -2.204862 -0.618172 10.642937 -4.523289 
340.026202 0.000000 125.286530 0.000000 -70.296713 0.000000 -3.448209 74.251427 -0.334016 93.234166 -0.564564 -176.498192 144.835144 -30.728603 174.855233 -63.363118 3.951197 0.219475 85.915009 -5.247015 -24.885553 21.454557 0.003111 0.000016 141.517024 -7.043498 -177.193726 -107.887898 -2.296319 -6.343898 100.859087 4.381470 1.880419 21.454562 -0.003097 -0.000001 11.313066 -0.721945 -2.985250 12.643320 -1.112849 -6.031736 12.327093 -1.149335 -6.024947 3.344488 -1.729203 -3.429830 -21.645631 9.756247 -7.820959 141.649692 -75.596386 37.669173 -12.734417 31.110148 25.870399 -57.348856 -22.437052 2.541639 -2.506256 -13.755717 22.223844 -156.129407 76.560781 25.852565 6.470465 -58.918268 -45.242543 -58.564841 17.984368 -2.248579 -1.575047 11.058540 -5.582634 
